<svg width="154" height="209" viewBox="0 0 154 209" fill="none" xmlns="http://www.w3.org/2000/svg">
<path d="M64.5484 94.6968C67.7838 120.596 67.7312 144.406 65.0409 161.961C63.6951 170.741 61.6937 177.927 59.1328 183.022C56.562 188.135 53.493 191.019 50.0671 191.458C46.6413 191.898 42.9599 189.879 39.2126 185.575C35.4797 181.288 31.7743 174.833 28.3117 166.669C21.3895 150.347 15.4834 127.301 12.2481 101.402C9.01272 75.5029 9.06528 51.6924 11.7556 34.1381C13.1013 25.3574 15.1027 18.1712 17.6637 13.0769C20.2344 7.96316 23.3035 5.07934 26.7293 4.64015C30.1552 4.20095 33.8366 6.21935 37.5838 10.5231C41.3168 14.8105 45.0222 21.2651 48.4847 29.4294C55.407 45.7514 61.3131 68.798 64.5484 94.6968Z" fill="#DCD6F7" stroke="black"/>
<path d="M55.2388 101.571C57.3475 120.197 57.3647 137.261 55.6959 149.79C54.861 156.058 53.6077 161.162 52.0001 164.753C50.3768 168.378 48.4706 170.294 46.4198 170.532C44.3689 170.771 42.084 169.342 39.6925 166.183C37.3243 163.054 34.9628 158.37 32.7486 152.456C28.323 140.636 24.5257 124.01 22.417 105.385C20.3082 86.7595 20.2911 69.6946 21.9599 57.1659C22.7948 50.8977 24.0481 45.7937 25.6557 42.2035C27.279 38.5779 29.1852 36.662 31.236 36.4237C33.2868 36.1854 35.5717 37.6144 37.9632 40.7734C40.3314 43.9017 42.693 48.5857 44.9072 54.4997C49.3328 66.3202 53.13 82.9459 55.2388 101.571Z" fill="#A6B1E1" stroke="black"/>
<path d="M89.2692 94.6968C86.0339 120.596 86.0864 144.406 88.7768 161.961C90.1225 170.741 92.1239 177.927 94.6848 183.022C97.2556 188.135 100.325 191.019 103.75 191.458C107.176 191.898 110.858 189.879 114.605 185.575C118.338 181.288 122.043 174.833 125.506 166.669C132.428 150.347 138.334 127.301 141.57 101.402C144.805 75.5029 144.752 51.6924 142.062 34.1381C140.716 25.3574 138.715 18.1712 136.154 13.0769C133.583 7.96316 130.514 5.07934 127.088 4.64015C123.662 4.20095 119.981 6.21935 116.234 10.5231C112.501 14.8105 108.795 21.2651 105.333 29.4294C98.4106 45.7514 92.5046 68.798 89.2692 94.6968Z" fill="#DCD6F7" stroke="black"/>
<path d="M98.5786 101.571C96.4699 120.197 96.4527 137.261 98.1215 149.79C98.9564 156.058 100.21 161.162 101.817 164.753C103.441 168.378 105.347 170.294 107.398 170.532C109.448 170.771 111.733 169.342 114.125 166.183C116.493 163.054 118.855 158.37 121.069 152.456C125.494 140.636 129.292 124.01 131.4 105.385C133.509 86.7595 133.526 69.6946 131.858 57.1659C131.023 50.8977 129.769 45.7937 128.162 42.2035C126.538 38.5779 124.632 36.662 122.581 36.4237C120.531 36.1854 118.246 37.6144 115.854 40.7734C113.486 43.9017 111.124 48.5857 108.91 54.4997C104.485 66.3202 100.687 82.9459 98.5786 101.571Z" fill="#A6B1E1" stroke="black"/>
<path d="M152.321 161.603C152.321 174.228 143.995 185.738 130.364 194.118C116.742 202.492 97.8908 207.688 77.0422 207.688C56.1937 207.688 37.3428 202.492 23.7204 194.118C10.0898 185.738 1.76343 174.228 1.76343 161.603C1.76343 148.977 10.0898 137.467 23.7204 129.088C37.3428 120.713 56.1937 115.517 77.0422 115.517C97.8908 115.517 116.742 120.713 130.364 129.088C143.995 137.467 152.321 148.977 152.321 161.603Z" fill="#DCD6F7" stroke="black"/>
<path d="M113.811 178.994C113.811 185.813 109.766 192.043 103.113 196.589C96.4621 201.134 87.2463 203.961 77.0424 203.961C66.8386 203.961 57.6227 201.134 50.9719 196.589C44.3186 192.043 40.2742 185.813 40.2742 178.994C40.2742 172.176 44.3186 165.946 50.9719 161.4C57.6227 156.855 66.8386 154.028 77.0424 154.028C87.2463 154.028 96.4621 156.855 103.113 161.4C109.766 165.946 113.811 172.176 113.811 178.994Z" fill="#FFF1E7" stroke="black"/>
<path d="M65.3619 178.373C65.3619 179.648 64.9738 180.782 64.3703 181.587C63.7669 182.392 62.9715 182.843 62.135 182.843C61.2986 182.843 60.5032 182.392 59.8998 181.587C59.2963 180.782 58.9082 179.648 58.9082 178.373C58.9082 177.099 59.2963 175.964 59.8998 175.16C60.5032 174.355 61.2986 173.904 62.135 173.904C62.9715 173.904 63.7669 174.355 64.3703 175.16C64.9738 175.964 65.3619 177.099 65.3619 178.373Z" fill="black" stroke="black"/>
<path d="M95.1766 178.373C95.1766 179.648 94.7885 180.782 94.185 181.587C93.5816 182.392 92.7862 182.843 91.9497 182.843C91.1133 182.843 90.3179 182.392 89.7145 181.587C89.111 180.782 88.7229 179.648 88.7229 178.373C88.7229 177.099 89.111 175.964 89.7145 175.16C90.3179 174.355 91.1133 173.904 91.9497 173.904C92.7862 173.904 93.5816 174.355 94.185 175.16C94.7885 175.964 95.1766 177.099 95.1766 178.373Z" fill="black" stroke="black"/>
<path d="M72.0732 185.827V188.726L72.0923 189.271C72.1446 190.764 72.8486 192.16 74.0186 193.089L74.0526 193.115C74.4212 193.408 74.8308 193.645 75.2683 193.819V193.819C76.4077 194.271 77.677 194.271 78.8164 193.819V193.819C79.2539 193.645 79.6635 193.408 80.0321 193.115L80.0661 193.089C81.2361 192.16 81.9401 190.764 81.9924 189.271L82.0114 188.726V185.827" stroke="black"/>
<path d="M52.9392 187.691C52.9392 188.232 52.434 188.885 51.2311 189.432C50.0734 189.958 48.4389 190.296 46.6067 190.296C44.7745 190.296 43.14 189.958 41.9823 189.432C40.7794 188.885 40.2742 188.232 40.2742 187.691C40.2742 187.15 40.7794 186.497 41.9823 185.95C43.14 185.424 44.7745 185.085 46.6067 185.085C48.4389 185.085 50.0734 185.424 51.2311 185.95C52.434 186.497 52.9392 187.15 52.9392 187.691Z" fill="#FFC2C2" stroke="black"/>
<path d="M115.053 187.691C115.053 187.945 114.931 188.233 114.616 188.543C114.3 188.855 113.816 189.159 113.177 189.425C111.903 189.956 110.108 190.296 108.099 190.296C106.09 190.296 104.295 189.956 103.021 189.425C102.383 189.159 101.899 188.855 101.582 188.543C101.267 188.233 101.146 187.945 101.146 187.691C101.146 187.436 101.267 187.148 101.582 186.838C101.899 186.526 102.383 186.222 103.021 185.956C104.295 185.425 106.09 185.085 108.099 185.085C110.108 185.085 111.903 185.425 113.177 185.956C113.816 186.222 114.3 186.526 114.616 186.838C114.931 187.148 115.053 187.436 115.053 187.691Z" fill="#FFC2C2" stroke="black"/>
</svg>
