<svg width="206" height="208" viewBox="0 0 206 208" fill="none" xmlns="http://www.w3.org/2000/svg">
<mask id="path-1-inside-1_61_367" fill="white">
<path fill-rule="evenodd" clip-rule="evenodd" d="M62.0745 83.8267C62.4764 89.3311 63.0332 94.9832 63.7521 100.737C70.2308 152.6 87.4128 193.113 102.129 191.227C116.845 189.34 123.523 145.768 117.044 93.9053C115.711 83.232 113.924 73.0394 111.799 63.5981C107.005 70.0814 100.397 75.6313 92.3187 79.4457C82.3485 84.1537 71.7399 85.462 62.0745 83.8267Z"/>
</mask>
<path fill-rule="evenodd" clip-rule="evenodd" d="M62.0745 83.8267C62.4764 89.3311 63.0332 94.9832 63.7521 100.737C70.2308 152.6 87.4128 193.113 102.129 191.227C116.845 189.34 123.523 145.768 117.044 93.9053C115.711 83.232 113.924 73.0394 111.799 63.5981C107.005 70.0814 100.397 75.6313 92.3187 79.4457C82.3485 84.1537 71.7399 85.462 62.0745 83.8267Z" fill="#DCD6F7"/>
<path d="M63.7521 100.737L62.7598 100.861L63.7521 100.737ZM62.0745 83.8267L62.2413 82.8407L60.9843 82.628L61.0771 83.8995L62.0745 83.8267ZM102.129 191.227L102.256 192.219L102.129 191.227ZM117.044 93.9053L118.037 93.7813L117.044 93.9053ZM111.799 63.5981L112.775 63.3785L112.295 61.2461L110.995 63.0035L111.799 63.5981ZM92.3187 79.4457L91.8917 78.5415L92.3187 79.4457ZM64.7443 100.613C64.0276 94.8761 63.4724 89.241 63.0718 83.7538L61.0771 83.8995C61.4803 89.4212 62.0388 95.0904 62.7598 100.861L64.7443 100.613ZM102.002 190.235C98.8302 190.641 95.3018 188.784 91.5895 184.52C87.9056 180.289 84.2247 173.888 80.7721 165.747C73.8726 149.479 67.9756 126.48 64.7443 100.613L62.7598 100.861C66.0073 126.857 71.9407 150.046 78.9309 166.528C82.4232 174.763 86.202 181.378 90.0811 185.833C93.9318 190.256 98.0698 192.755 102.256 192.219L102.002 190.235ZM116.052 94.0292C119.283 119.896 119.228 143.658 116.546 161.155C115.204 169.911 113.214 177.04 110.686 182.068C108.138 187.136 105.175 189.828 102.002 190.235L102.256 192.219C106.441 191.682 109.832 188.22 112.473 182.967C115.133 177.674 117.166 170.314 118.523 161.458C121.24 143.732 121.284 119.777 118.037 93.7813L116.052 94.0292ZM110.824 63.8177C112.941 73.2262 114.723 83.3868 116.052 94.0292L118.037 93.7813C116.699 83.0772 114.907 72.8526 112.775 63.3785L110.824 63.8177ZM110.995 63.0035C106.299 69.3533 99.8212 74.7971 91.8917 78.5415L92.7457 80.35C100.972 76.4654 107.71 70.8095 112.603 64.1927L110.995 63.0035ZM91.8917 78.5415C82.1044 83.1631 71.7029 84.4415 62.2413 82.8407L61.9076 84.8127C71.7769 86.4825 82.5925 85.1444 92.7457 80.35L91.8917 78.5415Z" fill="black" mask="url(#path-1-inside-1_61_367)"/>
<mask id="path-3-inside-2_61_367" fill="white">
<path fill-rule="evenodd" clip-rule="evenodd" d="M72.4031 84.4471C72.626 90.8771 73.1247 97.686 73.9205 104.715C78.1444 142.022 89.1383 171.386 98.4761 170.301C107.814 169.216 111.959 138.093 107.736 100.786C106.596 90.7168 104.962 81.2267 103.002 72.7575C99.8133 75.3346 96.2392 77.5945 92.3188 79.4457C85.8057 82.5213 79.0201 84.146 72.4031 84.4471Z"/>
</mask>
<path fill-rule="evenodd" clip-rule="evenodd" d="M72.4031 84.4471C72.626 90.8771 73.1247 97.686 73.9205 104.715C78.1444 142.022 89.1383 171.386 98.4761 170.301C107.814 169.216 111.959 138.093 107.736 100.786C106.596 90.7168 104.962 81.2267 103.002 72.7575C99.8133 75.3346 96.2392 77.5945 92.3188 79.4457C85.8057 82.5213 79.0201 84.146 72.4031 84.4471Z" fill="#A6B1E1"/>
<path d="M73.9205 104.715L74.9141 104.602L73.9205 104.715ZM72.4031 84.4471L72.3576 83.4481L71.3694 83.493L71.4037 84.4817L72.4031 84.4471ZM98.4761 170.301L98.3607 169.308H98.3607L98.4761 170.301ZM107.736 100.786L108.729 100.673L107.736 100.786ZM103.002 72.7575L103.976 72.532L103.616 70.9756L102.373 71.9798L103.002 72.7575ZM92.3188 79.4457L92.7458 80.35V80.35L92.3188 79.4457ZM74.9141 104.602C74.1212 97.5986 73.6244 90.8156 73.4025 84.4124L71.4037 84.4817C71.6275 90.9385 72.1282 97.7735 72.9268 104.827L74.9141 104.602ZM98.3607 169.308C96.5946 169.513 94.4641 168.288 92.0912 165.154C89.7649 162.081 87.4236 157.448 85.2171 151.554C80.8097 139.782 77.0196 123.199 74.9141 104.602L72.9268 104.827C75.0452 123.538 78.8641 140.29 83.3441 152.256C85.5813 158.231 88.0033 163.067 90.4966 166.361C92.9434 169.593 95.6887 171.632 98.5915 171.295L98.3607 169.308ZM106.742 100.898C108.847 119.495 108.862 136.517 107.2 148.995C106.368 155.241 105.123 160.292 103.544 163.819C101.932 167.418 100.129 169.102 98.3607 169.308L98.5915 171.295C101.492 170.957 103.709 168.345 105.369 164.637C107.061 160.858 108.339 155.592 109.183 149.259C110.872 136.577 110.848 119.384 108.729 100.673L106.742 100.898ZM102.028 72.9831C103.979 81.4124 105.606 90.8646 106.742 100.898L108.729 100.673C107.585 90.569 105.946 81.041 103.976 72.532L102.028 72.9831ZM102.373 71.9798C99.2466 74.5068 95.7401 76.7243 91.8918 78.5415L92.7458 80.35C96.7382 78.4648 100.38 76.1623 103.631 73.5353L102.373 71.9798ZM91.8918 78.5415C85.4984 81.5605 78.8426 83.153 72.3576 83.4481L72.4485 85.446C79.1977 85.1389 86.1129 83.4821 92.7458 80.35L91.8918 78.5415Z" fill="black" mask="url(#path-3-inside-2_61_367)"/>
<path d="M51.1911 66.7944C65.2272 60.1665 78.9474 56.3459 89.7722 55.5134C95.1865 55.0969 99.849 55.4302 103.456 56.5137C107.063 57.5972 109.56 59.4121 110.756 61.9238C111.952 64.4355 111.783 67.5094 110.342 70.9763C108.902 74.4431 106.21 78.249 102.46 82.1601C94.9623 89.9796 83.3087 98.1406 69.2727 104.768C55.2367 111.396 41.5164 115.217 30.6916 116.049C25.2774 116.466 20.6148 116.133 17.0079 115.049C13.4009 113.966 10.9038 112.151 9.70786 109.639C8.5119 107.127 8.68119 104.053 10.1215 100.587C11.5617 97.1198 14.2534 93.3138 18.0036 89.4028C25.5016 81.5833 37.1551 73.4222 51.1911 66.7944Z" fill="#DCD6F7" stroke="black"/>
<path d="M141.269 93.9689C138.033 119.868 138.086 143.678 140.776 161.233C142.122 170.013 144.123 177.199 146.684 182.294C149.255 187.407 152.324 190.291 155.75 190.73C159.176 191.17 162.857 189.151 166.605 184.847C170.337 180.56 174.043 174.106 177.505 165.941C184.428 149.619 190.334 126.573 193.569 100.674C196.804 74.775 196.752 50.9645 194.062 33.4101C192.716 24.6294 190.714 17.4432 188.153 12.349C185.583 7.23522 182.514 4.3514 179.088 3.9122C175.662 3.473 171.981 5.49141 168.233 9.7952C164.5 14.0826 160.795 20.5371 157.332 28.7014C150.41 45.0234 144.504 68.07 141.269 93.9689Z" fill="#DCD6F7" stroke="black"/>
<path d="M150.578 100.843C148.47 119.469 148.452 136.533 150.121 149.062C150.956 155.33 152.209 160.434 153.817 164.025C155.44 167.65 157.347 169.566 159.397 169.804C161.448 170.043 163.733 168.614 166.125 165.455C168.493 162.326 170.854 157.642 173.069 151.728C177.494 139.908 181.291 123.282 183.4 104.657C185.509 86.0315 185.526 68.9666 183.857 56.4379C183.022 50.1697 181.769 45.0657 180.161 41.4755C178.538 37.8499 176.632 35.934 174.581 35.6957C172.53 35.4574 170.245 36.8864 167.854 40.0454C165.486 43.1737 163.124 47.8577 160.91 53.7717C156.484 65.5922 152.687 82.2179 150.578 100.843Z" fill="#A6B1E1" stroke="black"/>
<path d="M204.321 160.875C204.321 173.5 195.995 185.01 182.364 193.389C168.742 201.764 149.891 206.96 129.042 206.96C108.194 206.96 89.3428 201.764 75.7204 193.389C62.0898 185.01 53.7634 173.5 53.7634 160.875C53.7634 148.249 62.0898 136.739 75.7204 128.36C89.3428 119.985 108.194 114.789 129.042 114.789C149.891 114.789 168.742 119.985 182.364 128.36C195.995 136.739 204.321 148.249 204.321 160.875Z" fill="#DCD6F7" stroke="black"/>
<path d="M165.81 178.266C165.81 185.085 161.766 191.315 155.113 195.861C148.462 200.406 139.246 203.233 129.042 203.233C118.838 203.233 109.622 200.406 102.972 195.861C96.3183 191.315 92.2739 185.085 92.2739 178.266C92.2739 171.448 96.3183 165.218 102.972 160.672C109.622 156.127 118.838 153.3 129.042 153.3C139.246 153.3 148.462 156.127 155.113 160.672C161.766 165.218 165.81 171.448 165.81 178.266Z" fill="#FFF1E7" stroke="black"/>
<path d="M117.362 177.645C117.362 178.92 116.974 180.054 116.37 180.859C115.767 181.664 114.972 182.114 114.135 182.114C113.299 182.114 112.503 181.664 111.9 180.859C111.296 180.054 110.908 178.92 110.908 177.645C110.908 176.371 111.296 175.236 111.9 174.432C112.503 173.627 113.299 173.176 114.135 173.176C114.972 173.176 115.767 173.627 116.37 174.432C116.974 175.236 117.362 176.371 117.362 177.645Z" fill="black" stroke="black"/>
<path d="M147.176 177.645C147.176 178.92 146.788 180.054 146.185 180.859C145.581 181.664 144.786 182.114 143.949 182.114C143.113 182.114 142.318 181.664 141.714 180.859C141.111 180.054 140.723 178.92 140.723 177.645C140.723 176.371 141.111 175.236 141.714 174.432C142.318 173.627 143.113 173.176 143.949 173.176C144.786 173.176 145.581 173.627 146.185 174.432C146.788 175.236 147.176 176.371 147.176 177.645Z" fill="black" stroke="black"/>
<path d="M124 193.795V190.896L124.019 190.351C124.071 188.858 124.775 187.463 125.945 186.534L125.979 186.507C126.348 186.214 126.757 185.977 127.195 185.803V185.803C128.334 185.351 129.604 185.351 130.743 185.803V185.803C131.18 185.977 131.59 186.214 131.959 186.507L131.993 186.534C133.163 187.463 133.867 188.858 133.919 190.351L133.938 190.896V193.795" stroke="black"/>
<path d="M104.939 186.962C104.939 187.503 104.434 188.157 103.231 188.703C102.073 189.23 100.439 189.568 98.6064 189.568C96.7743 189.568 95.1398 189.23 93.982 188.703C92.7792 188.157 92.2739 187.503 92.2739 186.962C92.2739 186.421 92.7792 185.768 93.982 185.222C95.1398 184.695 96.7743 184.357 98.6064 184.357C100.439 184.357 102.073 184.695 103.231 185.222C104.434 185.768 104.939 186.421 104.939 186.962Z" fill="#FFC2C2" stroke="black"/>
<path d="M167.053 186.962C167.053 187.217 166.931 187.505 166.616 187.815C166.299 188.127 165.815 188.431 165.177 188.697C163.903 189.228 162.108 189.568 160.099 189.568C158.09 189.568 156.295 189.228 155.021 188.697C154.382 188.431 153.899 188.127 153.582 187.815C153.267 187.505 153.145 187.217 153.145 186.962C153.145 186.708 153.267 186.42 153.582 186.11C153.899 185.798 154.382 185.494 155.021 185.228C156.295 184.697 158.09 184.357 160.099 184.357C162.108 184.357 163.903 184.697 165.177 185.228C165.815 185.494 166.299 185.798 166.616 186.11C166.931 186.42 167.053 186.708 167.053 186.962Z" fill="#FFC2C2" stroke="black"/>
<path d="M145.281 186.746C145.281 186.746 145.438 185.572 145.718 185.096C145.997 184.62 146.813 183.06 146.813 183.06C146.813 183.06 148.108 184.252 148.532 184.605C148.957 184.959 149.502 186.01 149.502 186.01C149.502 186.01 150.071 187.193 150.144 187.607C150.216 188.022 150.361 188.852 150.081 189.328C149.802 189.804 149.171 190.342 149.171 190.342C149.171 190.342 148.539 190.879 148.187 190.941C147.836 191.002 147.06 190.71 147.06 190.71C147.06 190.71 146.284 190.418 145.859 190.064C145.435 189.711 145.363 189.296 145.218 188.467C145.073 187.637 145.281 186.746 145.281 186.746Z" fill="white" stroke="black"/>
<path d="M147.28 197.745C147.28 197.745 147.439 196.572 147.718 196.096C147.998 195.619 148.814 194.059 148.814 194.059C148.814 194.059 150.109 195.252 150.533 195.605C150.957 195.959 151.503 197.01 151.503 197.01C151.503 197.01 152.071 198.193 152.143 198.608C152.216 199.023 152.36 199.853 152.08 200.329C151.801 200.805 151.169 201.342 151.169 201.342C151.169 201.342 150.538 201.879 150.186 201.941C149.834 202.002 149.058 201.71 149.058 201.71C149.058 201.71 148.282 201.417 147.858 201.064C147.434 200.71 147.362 200.295 147.218 199.466C147.073 198.636 147.28 197.745 147.28 197.745Z" fill="white" stroke="black"/>
</svg>
