<svg width="134" height="113" viewBox="0 0 134 113" fill="none" xmlns="http://www.w3.org/2000/svg">
<rect width="134" height="113" rx="10" fill="#F0F0F0"/>
<path d="M66.5 88.4184C79.9619 88.4184 90.875 77.773 90.875 64.6412C90.875 51.5094 79.9619 40.864 66.5 40.864C53.0381 40.864 42.125 51.5094 42.125 64.6412C42.125 77.773 53.0381 88.4184 66.5 88.4184Z" stroke="black" stroke-width="2" stroke-linecap="round" stroke-linejoin="round"/>
<path d="M56.3433 64.6409H76.6558" stroke="black" stroke-width="2" stroke-linecap="round" stroke-linejoin="round"/>
<path d="M66.5 54.7341V74.5484" stroke="black" stroke-width="2" stroke-linecap="round" stroke-linejoin="round"/>
<path d="M41.0712 25.575C41.1112 25.515 41.1562 25.47 41.2062 25.44C41.2662 25.4 41.3262 25.37 41.3862 25.35C41.4362 25.35 41.4862 25.36 41.5362 25.38C41.5862 25.39 41.6362 25.41 41.6862 25.44C41.7162 25.48 41.7412 25.525 41.7612 25.575C41.7912 25.615 41.8162 25.665 41.8362 25.725C41.8362 25.785 41.8262 25.85 41.8062 25.92C41.7862 25.98 41.7562 26.04 41.7162 26.1L40.4562 27.825L42.5262 29.49C42.5762 29.54 42.6162 29.59 42.6462 29.64C42.6762 29.69 42.7012 29.745 42.7212 29.805C42.7212 29.875 42.7162 29.94 42.7062 30C42.6962 30.05 42.6762 30.09 42.6462 30.12C42.6162 30.17 42.5762 30.21 42.5262 30.24C42.4862 30.27 42.4412 30.285 42.3912 30.285C42.3312 30.305 42.2662 30.305 42.1962 30.285C42.1262 30.255 42.0612 30.21 42.0012 30.15L39.9462 28.515L38.5662 30.39C38.5162 30.45 38.4662 30.5 38.4162 30.54C38.3662 30.57 38.3112 30.585 38.2512 30.585C38.1912 30.605 38.1312 30.61 38.0712 30.6C38.0212 30.58 37.9762 30.555 37.9362 30.525C37.8862 30.495 37.8462 30.46 37.8162 30.42C37.7862 30.37 37.7712 30.315 37.7712 30.255C37.7512 30.205 37.7512 30.15 37.7712 30.09C37.7912 30.03 37.8312 29.96 37.8912 29.88L41.0712 25.575ZM45.0762 27.51H46.9062C46.9662 27.51 47.0212 27.52 47.0712 27.54C47.1212 27.56 47.1662 27.585 47.2062 27.615C47.2362 27.665 47.2612 27.715 47.2812 27.765C47.3012 27.815 47.3112 27.87 47.3112 27.93C47.3112 28 47.3012 28.06 47.2812 28.11C47.2612 28.15 47.2362 28.185 47.2062 28.215C47.1662 28.245 47.1212 28.27 47.0712 28.29C47.0212 28.3 46.9662 28.305 46.9062 28.305H45.1362L45.3462 31.125C45.3462 31.215 45.3362 31.295 45.3162 31.365C45.3062 31.435 45.2862 31.485 45.2562 31.515C45.2162 31.565 45.1662 31.6 45.1062 31.62C45.0562 31.64 45.0012 31.65 44.9412 31.65C44.8712 31.65 44.8112 31.645 44.7612 31.635C44.7112 31.615 44.6712 31.58 44.6412 31.53C44.5912 31.5 44.5562 31.45 44.5362 31.38C44.5162 31.31 44.5062 31.23 44.5062 31.14L44.0712 25.185C44.0512 25.105 44.0462 25.035 44.0562 24.975C44.0662 24.905 44.0912 24.84 44.1312 24.78C44.1612 24.74 44.2012 24.71 44.2512 24.69C44.3012 24.66 44.3662 24.645 44.4462 24.645C44.5062 24.645 44.5612 24.66 44.6112 24.69C44.6612 24.71 44.7112 24.74 44.7612 24.78C44.7912 24.84 44.8162 24.905 44.8362 24.975C44.8662 25.035 44.8862 25.1 44.8962 25.17L45.0762 27.51ZM48.0451 25.755C47.9551 25.785 47.8751 25.8 47.8051 25.8C47.7351 25.8 47.6801 25.785 47.6401 25.755C47.5901 25.735 47.5551 25.7 47.5351 25.65C47.5151 25.6 47.5051 25.535 47.5051 25.455C47.4851 25.405 47.4801 25.36 47.4901 25.32C47.5001 25.27 47.5301 25.22 47.5801 25.17C47.6101 25.14 47.6601 25.115 47.7301 25.095C47.8001 25.065 47.8801 25.035 47.9701 25.005L49.6651 24.69C49.9651 24.63 50.2251 24.61 50.4451 24.63C50.6751 24.64 50.8751 24.69 51.0451 24.78C51.1951 24.87 51.3101 24.995 51.3901 25.155C51.4701 25.315 51.5101 25.505 51.5101 25.725C51.5101 25.845 51.4951 25.96 51.4651 26.07C51.4351 26.17 51.3901 26.27 51.3301 26.37C51.2901 26.43 51.2451 26.49 51.1951 26.55C51.1551 26.61 51.1101 26.665 51.0601 26.715L52.2751 27.765C52.3351 27.825 52.3851 27.885 52.4251 27.945C52.4651 28.005 52.4951 28.06 52.5151 28.11C52.5151 28.17 52.5051 28.23 52.4851 28.29C52.4751 28.35 52.4501 28.4 52.4101 28.44C52.3601 28.5 52.3101 28.54 52.2601 28.56C52.2201 28.58 52.1751 28.58 52.1251 28.56C52.0651 28.56 52.0001 28.54 51.9301 28.5C51.8701 28.46 51.8101 28.41 51.7501 28.35L50.4751 27.27L48.7951 28.905C48.7151 28.965 48.6401 29.015 48.5701 29.055C48.5101 29.085 48.4551 29.1 48.4051 29.1C48.3451 29.12 48.2901 29.12 48.2401 29.1C48.2001 29.08 48.1651 29.04 48.1351 28.98C48.0751 28.94 48.0351 28.895 48.0151 28.845C47.9951 28.785 47.9951 28.725 48.0151 28.665C48.0151 28.605 48.0351 28.545 48.0751 28.485C48.1251 28.425 48.1901 28.365 48.2701 28.305L50.2801 26.37C50.3401 26.33 50.3901 26.285 50.4301 26.235C50.4801 26.175 50.5251 26.115 50.5651 26.055C50.5951 26.005 50.6151 25.955 50.6251 25.905C50.6451 25.845 50.6551 25.785 50.6551 25.725C50.6551 25.655 50.6401 25.595 50.6101 25.545C50.5801 25.495 50.5401 25.455 50.4901 25.425C50.4301 25.405 50.3551 25.395 50.2651 25.395C50.1851 25.385 50.0951 25.385 49.9951 25.395L48.0451 25.755ZM54.1351 24.39C54.1351 24.31 54.1401 24.24 54.1501 24.18C54.1701 24.11 54.1951 24.045 54.2251 23.985C54.2551 23.945 54.2951 23.915 54.3451 23.895C54.3951 23.865 54.4601 23.85 54.5401 23.85C54.6001 23.85 54.6551 23.865 54.7051 23.895C54.7651 23.915 54.8201 23.945 54.8701 23.985C54.9001 24.045 54.9251 24.11 54.9451 24.18C54.9651 24.24 54.9751 24.31 54.9751 24.39V29.16C54.9751 29.25 54.9651 29.33 54.9451 29.4C54.9251 29.47 54.9001 29.52 54.8701 29.55C54.8201 29.6 54.7651 29.635 54.7051 29.655C54.6551 29.665 54.6001 29.67 54.5401 29.67C54.4601 29.67 54.3951 29.665 54.3451 29.655C54.2951 29.635 54.2551 29.6 54.2251 29.55C54.1951 29.52 54.1701 29.47 54.1501 29.4C54.1401 29.33 54.1351 29.25 54.1351 29.16V24.39ZM50.7001 30.51C50.6801 30.63 50.6701 30.75 50.6701 30.87C50.6701 30.99 50.6751 31.105 50.6851 31.215C50.6851 31.335 50.6851 31.445 50.6851 31.545C50.6851 31.645 50.6901 31.74 50.7001 31.83C50.7001 31.89 50.7051 31.94 50.7151 31.98C50.7351 32.02 50.7601 32.05 50.7901 32.07C50.8101 32.1 50.8501 32.125 50.9101 32.145C50.9701 32.155 51.0451 32.155 51.1351 32.145C51.3751 32.145 51.6301 32.13 51.9001 32.1C52.1701 32.07 52.4601 32.025 52.7701 31.965C53.0701 31.925 53.3551 31.88 53.6251 31.83C53.8951 31.78 54.1501 31.725 54.3901 31.665C54.4501 31.665 54.5001 31.67 54.5401 31.68C54.5901 31.69 54.6401 31.71 54.6901 31.74C54.7201 31.78 54.7501 31.82 54.7801 31.86C54.8101 31.9 54.8351 31.94 54.8551 31.98C54.8551 32.04 54.8551 32.095 54.8551 32.145C54.8551 32.185 54.8501 32.225 54.8401 32.265C54.8101 32.325 54.7751 32.37 54.7351 32.4C54.7051 32.43 54.6701 32.45 54.6301 32.46C54.4901 32.51 54.3451 32.55 54.1951 32.58C54.0551 32.61 53.9101 32.64 53.7601 32.67C53.5901 32.7 53.4201 32.73 53.2501 32.76C53.0801 32.79 52.9151 32.815 52.7551 32.835C52.5751 32.865 52.3951 32.89 52.2151 32.91C52.0451 32.93 51.8801 32.94 51.7201 32.94C51.5401 32.96 51.3701 32.975 51.2101 32.985C51.0601 32.985 50.9201 32.985 50.7901 32.985C50.6501 32.985 50.5251 32.97 50.4151 32.94C50.3051 32.91 50.2101 32.855 50.1301 32.775C50.0401 32.715 49.9701 32.635 49.9201 32.535C49.8701 32.435 49.8451 32.315 49.8451 32.175C49.8251 32.045 49.8101 31.91 49.8001 31.77C49.8001 31.63 49.8051 31.485 49.8151 31.335C49.8151 31.195 49.8151 31.055 49.8151 30.915C49.8151 30.775 49.8251 30.635 49.8451 30.495C49.8451 30.435 49.8551 30.38 49.8751 30.33C49.8951 30.28 49.9351 30.235 49.9951 30.195C50.0351 30.165 50.0801 30.14 50.1301 30.12C50.1801 30.1 50.2351 30.09 50.2951 30.09C50.3351 30.09 50.3801 30.1 50.4301 30.12C50.4801 30.14 50.5301 30.165 50.5801 30.195C50.6101 30.245 50.6351 30.295 50.6551 30.345C50.6851 30.395 50.7001 30.45 50.7001 30.51ZM59.8771 25.92C59.8171 25.94 59.7621 25.945 59.7121 25.935C59.6621 25.925 59.6221 25.9 59.5921 25.86C59.5521 25.83 59.5221 25.795 59.5021 25.755C59.4821 25.715 59.4721 25.665 59.4721 25.605C59.4521 25.565 59.4471 25.525 59.4571 25.485C59.4671 25.435 59.4871 25.38 59.5171 25.32C59.5371 25.28 59.5671 25.245 59.6071 25.215C59.6571 25.185 59.7171 25.16 59.7871 25.14C59.8671 25.13 59.9521 25.12 60.0421 25.11C60.1421 25.09 60.2421 25.07 60.3421 25.05C60.4421 25.04 60.5471 25.025 60.6571 25.005C60.7671 24.985 60.8821 24.96 61.0021 24.93C61.2221 24.9 61.4371 24.87 61.6471 24.84C61.8571 24.81 62.0521 24.78 62.2321 24.75C62.4621 24.73 62.6621 24.73 62.8321 24.75C63.0121 24.77 63.1621 24.81 63.2821 24.87C63.3921 24.95 63.4771 25.035 63.5371 25.125C63.5971 25.215 63.6371 25.32 63.6571 25.44C63.6571 25.56 63.6371 25.695 63.5971 25.845C63.5671 25.985 63.5121 26.13 63.4321 26.28C63.4221 26.3 63.4121 26.32 63.4021 26.34C63.3921 26.35 63.3871 26.36 63.3871 26.37C63.3771 26.38 63.3671 26.395 63.3571 26.415C63.3471 26.425 63.3421 26.435 63.3421 26.445L65.2021 27.645C65.2321 27.675 65.2571 27.715 65.2771 27.765C65.3071 27.805 65.3271 27.845 65.3371 27.885C65.3371 27.945 65.3321 28 65.3221 28.05C65.3121 28.1 65.2971 28.14 65.2771 28.17C65.2471 28.22 65.2121 28.26 65.1721 28.29C65.1421 28.32 65.1071 28.34 65.0671 28.35C65.0071 28.38 64.9471 28.39 64.8871 28.38C64.8371 28.36 64.7821 28.325 64.7221 28.275L62.8621 27.06L62.6971 27.225C62.6271 27.285 62.5621 27.345 62.5021 27.405C62.4421 27.465 62.3921 27.515 62.3521 27.555L62.0371 27.87C61.9771 27.92 61.9221 27.97 61.8721 28.02C61.8221 28.07 61.7771 28.115 61.7371 28.155L61.3771 28.47C61.3071 28.53 61.2421 28.575 61.1821 28.605C61.1221 28.625 61.0671 28.63 61.0171 28.62C60.9571 28.62 60.9021 28.615 60.8521 28.605C60.8121 28.585 60.7771 28.555 60.7471 28.515C60.7071 28.485 60.6771 28.45 60.6571 28.41C60.6471 28.36 60.6421 28.305 60.6421 28.245C60.6421 28.195 60.6521 28.145 60.6721 28.095C60.6921 28.045 60.7321 27.995 60.7921 27.945C60.8521 27.885 60.9121 27.825 60.9721 27.765C61.0421 27.705 61.1121 27.645 61.1821 27.585C61.2421 27.535 61.3021 27.485 61.3621 27.435C61.4221 27.375 61.4821 27.315 61.5421 27.255C61.6021 27.205 61.6621 27.15 61.7221 27.09C61.7821 27.03 61.8421 26.97 61.9021 26.91C61.9521 26.86 62.0071 26.805 62.0671 26.745C62.1271 26.685 62.1921 26.615 62.2621 26.535C62.4221 26.365 62.5471 26.215 62.6371 26.085C62.7271 25.945 62.7871 25.82 62.8171 25.71C62.8271 25.62 62.7871 25.555 62.6971 25.515C62.6071 25.475 62.4571 25.47 62.2471 25.5C62.0771 25.53 61.8971 25.56 61.7071 25.59C61.5171 25.62 61.3171 25.65 61.1071 25.68C60.9871 25.71 60.8721 25.735 60.7621 25.755C60.6621 25.775 60.5621 25.795 60.4621 25.815C60.3521 25.835 60.2471 25.855 60.1471 25.875C60.0571 25.895 59.9671 25.91 59.8771 25.92ZM62.9371 23.73L60.4021 24.03C60.3321 24.05 60.2721 24.055 60.2221 24.045C60.1721 24.025 60.1321 24 60.1021 23.97C60.0621 23.95 60.0271 23.92 59.9971 23.88C59.9771 23.83 59.9671 23.775 59.9671 23.715C59.9471 23.655 59.9421 23.605 59.9521 23.565C59.9621 23.515 59.9821 23.475 60.0121 23.445C60.0321 23.415 60.0621 23.395 60.1021 23.385C60.1521 23.365 60.2071 23.345 60.2671 23.325L62.8021 23.01C62.8621 23.01 62.9121 23.02 62.9521 23.04C63.0021 23.05 63.0521 23.065 63.1021 23.085C63.1321 23.115 63.1571 23.15 63.1771 23.19C63.2071 23.23 63.2321 23.28 63.2521 23.34C63.2521 23.4 63.2471 23.455 63.2371 23.505C63.2371 23.545 63.2271 23.58 63.2071 23.61C63.1771 23.65 63.1371 23.68 63.0871 23.7C63.0471 23.72 62.9971 23.73 62.9371 23.73ZM59.8171 30.315C59.7371 30.335 59.6721 30.34 59.6221 30.33C59.5721 30.32 59.5321 30.295 59.5021 30.255C59.4621 30.225 59.4321 30.185 59.4121 30.135C59.4021 30.085 59.3971 30.025 59.3971 29.955C59.3771 29.895 59.3721 29.845 59.3821 29.805C59.3921 29.755 59.4171 29.71 59.4571 29.67C59.4871 29.64 59.5271 29.62 59.5771 29.61C59.6271 29.59 59.6871 29.57 59.7571 29.55L66.4321 29.085C66.4921 29.085 66.5421 29.09 66.5821 29.1C66.6321 29.11 66.6771 29.13 66.7171 29.16C66.7471 29.19 66.7671 29.23 66.7771 29.28C66.7971 29.32 66.8171 29.37 66.8371 29.43C66.8371 29.51 66.8321 29.575 66.8221 29.625C66.8121 29.675 66.7921 29.715 66.7621 29.745C66.7221 29.785 66.6771 29.815 66.6271 29.835C66.5871 29.845 66.5371 29.85 66.4771 29.85L63.8071 30.045V32.37C63.8071 32.46 63.7921 32.54 63.7621 32.61C63.7421 32.68 63.7171 32.73 63.6871 32.76C63.6371 32.81 63.5871 32.845 63.5371 32.865C63.4871 32.875 63.4321 32.88 63.3721 32.88C63.2921 32.88 63.2271 32.875 63.1771 32.865C63.1271 32.845 63.0871 32.81 63.0571 32.76C63.0171 32.73 62.9871 32.68 62.9671 32.61C62.9571 32.54 62.9521 32.46 62.9521 32.37V30.09L59.8171 30.315ZM68.0751 26.73C67.9951 26.75 67.9251 26.755 67.8651 26.745C67.8051 26.735 67.7601 26.71 67.7301 26.67C67.6801 26.64 67.6401 26.605 67.6101 26.565C67.5901 26.525 67.5801 26.475 67.5801 26.415C67.5601 26.375 67.5551 26.33 67.5651 26.28C67.5851 26.23 67.6101 26.175 67.6401 26.115C67.6701 26.075 67.7101 26.04 67.7601 26.01C67.8101 25.98 67.8751 25.955 67.9551 25.935C68.1051 25.915 68.2601 25.895 68.4201 25.875C68.5901 25.855 68.7701 25.835 68.9601 25.815C69.0501 25.815 69.1351 25.815 69.2151 25.815C69.3051 25.805 69.3951 25.795 69.4851 25.785C69.5651 25.775 69.6451 25.77 69.7251 25.77C69.8051 25.76 69.8851 25.75 69.9651 25.74C70.1851 25.74 70.3851 25.755 70.5651 25.785C70.7451 25.815 70.9051 25.865 71.0451 25.935C71.1651 26.015 71.2651 26.105 71.3451 26.205C71.4351 26.295 71.5101 26.4 71.5701 26.52C71.6101 26.65 71.6351 26.785 71.6451 26.925C71.6551 27.055 71.6501 27.195 71.6301 27.345C71.6001 27.495 71.5551 27.645 71.4951 27.795C71.4451 27.935 71.3851 28.07 71.3151 28.2C71.2051 28.37 71.0851 28.55 70.9551 28.74C70.8251 28.92 70.6801 29.115 70.5201 29.325C70.3401 29.545 70.1701 29.745 70.0101 29.925C69.8601 30.105 69.7201 30.26 69.5901 30.39C69.5301 30.45 69.4701 30.495 69.4101 30.525C69.3601 30.545 69.3101 30.55 69.2601 30.54C69.2001 30.54 69.1401 30.53 69.0801 30.51C69.0301 30.49 68.9901 30.46 68.9601 30.42C68.9101 30.39 68.8751 30.355 68.8551 30.315C68.8351 30.265 68.8251 30.21 68.8251 30.15C68.8051 30.1 68.8051 30.05 68.8251 30C68.8551 29.94 68.9001 29.88 68.9601 29.82C69.0201 29.75 69.0851 29.68 69.1551 29.61C69.2351 29.53 69.3101 29.445 69.3801 29.355C69.4601 29.265 69.5401 29.175 69.6201 29.085C69.7101 28.995 69.8001 28.895 69.8901 28.785C70.0601 28.595 70.2101 28.405 70.3401 28.215C70.4801 28.015 70.6001 27.82 70.7001 27.63C70.7701 27.48 70.8101 27.345 70.8201 27.225C70.8401 27.095 70.8351 26.97 70.8051 26.85C70.7551 26.75 70.6601 26.675 70.5201 26.625C70.3801 26.575 70.1951 26.55 69.9651 26.55C69.8851 26.56 69.8051 26.57 69.7251 26.58C69.6551 26.58 69.5851 26.58 69.5151 26.58C69.4351 26.59 69.3501 26.6 69.2601 26.61C69.1801 26.61 69.1001 26.61 69.0201 26.61C68.9301 26.63 68.8401 26.645 68.7501 26.655C68.6701 26.665 68.5901 26.675 68.5101 26.685C68.4301 26.695 68.3501 26.705 68.2701 26.715C68.2001 26.725 68.1351 26.73 68.0751 26.73ZM74.0601 27.525H75.8751C75.9351 27.525 75.9901 27.535 76.0401 27.555C76.0901 27.575 76.1401 27.6 76.1901 27.63C76.2201 27.68 76.2451 27.73 76.2651 27.78C76.2851 27.83 76.2951 27.885 76.2951 27.945C76.2951 28.015 76.2851 28.075 76.2651 28.125C76.2451 28.165 76.2201 28.2 76.1901 28.23C76.1401 28.26 76.0901 28.285 76.0401 28.305C75.9901 28.315 75.9351 28.32 75.8751 28.32H74.1201L74.3001 31.14C74.3001 31.23 74.2901 31.31 74.2701 31.38C74.2601 31.45 74.2401 31.5 74.2101 31.53C74.1701 31.58 74.1201 31.615 74.0601 31.635C74.0101 31.655 73.9551 31.665 73.8951 31.665C73.8251 31.665 73.7651 31.66 73.7151 31.65C73.6651 31.63 73.6251 31.595 73.5951 31.545C73.5451 31.515 73.5101 31.465 73.4901 31.395C73.4701 31.325 73.4601 31.245 73.4601 31.155L73.0851 25.17C73.0651 25.09 73.0601 25.02 73.0701 24.96C73.0801 24.89 73.1051 24.825 73.1451 24.765C73.1751 24.725 73.2151 24.695 73.2651 24.675C73.3151 24.645 73.3801 24.63 73.4601 24.63C73.5201 24.63 73.5751 24.645 73.6251 24.675C73.6751 24.695 73.7251 24.725 73.7751 24.765C73.8051 24.825 73.8301 24.89 73.8501 24.96C73.8801 25.02 73.9001 25.085 73.9101 25.155L74.0601 27.525ZM77.3019 27.54C77.2319 27.56 77.1669 27.565 77.1069 27.555C77.0569 27.535 77.0169 27.505 76.9869 27.465C76.9369 27.435 76.9019 27.4 76.8819 27.36C76.8619 27.32 76.8519 27.27 76.8519 27.21C76.8419 27.17 76.8419 27.125 76.8519 27.075C76.8719 27.025 76.8969 26.975 76.9269 26.925C76.9569 26.885 76.9969 26.855 77.0469 26.835C77.0969 26.805 77.1619 26.78 77.2419 26.76L82.5969 26.07C82.6469 26.07 82.6919 26.08 82.7319 26.1C82.7819 26.11 82.8269 26.13 82.8669 26.16C82.8969 26.2 82.9219 26.245 82.9419 26.295C82.9619 26.335 82.9819 26.375 83.0019 26.415C83.0019 26.475 82.9969 26.53 82.9869 26.58C82.9769 26.62 82.9619 26.66 82.9419 26.7C82.9119 26.75 82.8669 26.79 82.8069 26.82C82.7569 26.84 82.7019 26.85 82.6419 26.85L77.3019 27.54ZM77.8719 25.68C77.8119 25.7 77.7519 25.705 77.6919 25.695C77.6419 25.675 77.6019 25.645 77.5719 25.605C77.5219 25.575 77.4869 25.54 77.4669 25.5C77.4469 25.46 77.4369 25.41 77.4369 25.35C77.4169 25.31 77.4119 25.27 77.4219 25.23C77.4419 25.18 77.4669 25.13 77.4969 25.08C77.5269 25.04 77.5669 25.01 77.6169 24.99C77.6669 24.96 77.7369 24.935 77.8269 24.915L81.2319 24.465C81.2819 24.465 81.3269 24.475 81.3669 24.495C81.4169 24.505 81.4619 24.525 81.5019 24.555C81.5319 24.595 81.5569 24.635 81.5769 24.675C81.5969 24.715 81.6169 24.755 81.6369 24.795C81.6369 24.845 81.6319 24.895 81.6219 24.945C81.6119 24.985 81.5969 25.025 81.5769 25.065C81.5469 25.115 81.5019 25.155 81.4419 25.185C81.3919 25.205 81.3369 25.215 81.2769 25.215L77.8719 25.68ZM81.1269 29.475C81.1269 29.355 81.1019 29.25 81.0519 29.16C81.0119 29.07 80.9569 28.995 80.8869 28.935C80.7969 28.875 80.7019 28.83 80.6019 28.8C80.5119 28.77 80.4069 28.755 80.2869 28.755C80.1169 28.755 79.9619 28.785 79.8219 28.845C79.6819 28.905 79.5619 28.995 79.4619 29.115C79.3419 29.235 79.2569 29.365 79.2069 29.505C79.1569 29.645 79.1319 29.79 79.1319 29.94C79.1319 30.07 79.1469 30.185 79.1769 30.285C79.2069 30.385 79.2619 30.465 79.3419 30.525C79.4019 30.605 79.4769 30.665 79.5669 30.705C79.6669 30.735 79.7769 30.75 79.8969 30.75C80.0769 30.75 80.2419 30.72 80.3919 30.66C80.5419 30.59 80.6769 30.485 80.7969 30.345C80.8969 30.215 80.9769 30.08 81.0369 29.94C81.0969 29.79 81.1269 29.635 81.1269 29.475ZM79.8819 31.515C79.6819 31.515 79.4919 31.485 79.3119 31.425C79.1419 31.365 78.9769 31.27 78.8169 31.14C78.6469 31.02 78.5219 30.86 78.4419 30.66C78.3619 30.46 78.3219 30.225 78.3219 29.955C78.3219 29.845 78.3319 29.73 78.3519 29.61C78.3719 29.49 78.4069 29.37 78.4569 29.25C78.4969 29.14 78.5469 29.035 78.6069 28.935C78.6769 28.825 78.7569 28.725 78.8469 28.635C78.9169 28.545 79.0019 28.46 79.1019 28.38C79.2119 28.3 79.3319 28.23 79.4619 28.17C79.5819 28.11 79.7069 28.065 79.8369 28.035C79.9769 28.005 80.1219 27.99 80.2719 27.99C80.5219 27.99 80.7469 28.03 80.9469 28.11C81.1569 28.19 81.3369 28.305 81.4869 28.455C81.6269 28.615 81.7319 28.785 81.8019 28.965C81.8819 29.135 81.9219 29.31 81.9219 29.49C81.9219 29.63 81.9069 29.765 81.8769 29.895C81.8469 30.015 81.8119 30.135 81.7719 30.255C81.7119 30.375 81.6419 30.49 81.5619 30.6C81.4919 30.71 81.4119 30.81 81.3219 30.9C81.2319 31 81.1319 31.09 81.0219 31.17C80.9119 31.24 80.7969 31.3 80.6769 31.35C80.5469 31.41 80.4119 31.455 80.2719 31.485C80.1419 31.505 80.0119 31.515 79.8819 31.515ZM84.8619 28.02H86.6469C86.7069 28.02 86.7619 28.03 86.8119 28.05C86.8619 28.07 86.9069 28.095 86.9469 28.125C86.9769 28.175 87.0019 28.225 87.0219 28.275C87.0419 28.325 87.0519 28.38 87.0519 28.44C87.0519 28.51 87.0419 28.57 87.0219 28.62C87.0019 28.66 86.9769 28.695 86.9469 28.725C86.9069 28.755 86.8619 28.78 86.8119 28.8C86.7619 28.81 86.7069 28.815 86.6469 28.815H84.9219L85.1169 31.77C85.1169 31.86 85.1069 31.94 85.0869 32.01C85.0769 32.08 85.0569 32.13 85.0269 32.16C84.9869 32.21 84.9369 32.245 84.8769 32.265C84.8269 32.285 84.7719 32.295 84.7119 32.295C84.6419 32.295 84.5819 32.29 84.5319 32.28C84.4819 32.26 84.4419 32.225 84.4119 32.175C84.3619 32.145 84.3269 32.095 84.3069 32.025C84.2869 31.955 84.2769 31.875 84.2769 31.785L83.8119 24.54C83.7919 24.46 83.7869 24.39 83.7969 24.33C83.8069 24.26 83.8319 24.195 83.8719 24.135C83.9019 24.095 83.9419 24.065 83.9919 24.045C84.0419 24.015 84.1069 24 84.1869 24C84.2469 24 84.3019 24.015 84.3519 24.045C84.4019 24.065 84.4519 24.095 84.5019 24.135C84.5319 24.195 84.5569 24.26 84.5769 24.33C84.6069 24.39 84.6269 24.455 84.6369 24.525L84.8619 28.02ZM88.0263 27.18C87.9463 27.2 87.8763 27.205 87.8163 27.195C87.7563 27.185 87.7113 27.16 87.6813 27.12C87.6313 27.09 87.5913 27.055 87.5613 27.015C87.5413 26.975 87.5313 26.925 87.5313 26.865C87.5113 26.825 87.5063 26.78 87.5163 26.73C87.5363 26.68 87.5613 26.625 87.5913 26.565C87.6213 26.525 87.6613 26.49 87.7113 26.46C87.7613 26.43 87.8263 26.405 87.9063 26.385C88.0563 26.365 88.2063 26.345 88.3563 26.325C88.5063 26.305 88.6663 26.285 88.8363 26.265C88.9063 26.265 88.9813 26.265 89.0613 26.265C89.1413 26.255 89.2213 26.245 89.3013 26.235C89.3813 26.225 89.4563 26.22 89.5263 26.22C89.6063 26.21 89.6863 26.2 89.7663 26.19C89.9863 26.19 90.1863 26.205 90.3663 26.235C90.5463 26.265 90.6963 26.31 90.8163 26.37C90.9263 26.45 91.0163 26.54 91.0863 26.64C91.1663 26.73 91.2263 26.83 91.2663 26.94C91.2963 27.06 91.3113 27.19 91.3113 27.33C91.3213 27.46 91.3113 27.59 91.2813 27.72C91.2413 27.87 91.1913 28.01 91.1313 28.14C91.0813 28.26 91.0263 28.38 90.9663 28.5C90.8563 28.67 90.7413 28.845 90.6213 29.025C90.5013 29.195 90.3763 29.37 90.2463 29.55C90.0963 29.75 89.9463 29.935 89.7963 30.105C89.6563 30.265 89.5213 30.41 89.3913 30.54C89.3313 30.6 89.2713 30.645 89.2113 30.675C89.1613 30.695 89.1113 30.7 89.0613 30.69C89.0013 30.69 88.9413 30.68 88.8813 30.66C88.8313 30.64 88.7913 30.61 88.7613 30.57C88.7113 30.54 88.6763 30.505 88.6563 30.465C88.6363 30.415 88.6263 30.36 88.6263 30.3C88.6063 30.25 88.6063 30.2 88.6263 30.15C88.6563 30.09 88.7013 30.03 88.7613 29.97C88.8913 29.83 89.0263 29.68 89.1663 29.52C89.3163 29.36 89.4663 29.19 89.6163 29.01C89.7663 28.84 89.9013 28.665 90.0213 28.485C90.1413 28.305 90.2513 28.12 90.3513 27.93C90.4213 27.78 90.4663 27.645 90.4863 27.525C90.5163 27.405 90.5163 27.3 90.4863 27.21C90.4463 27.13 90.3663 27.075 90.2463 27.045C90.1263 27.005 89.9663 26.985 89.7663 26.985C89.6863 26.995 89.6113 27.005 89.5413 27.015C89.4713 27.015 89.4013 27.02 89.3313 27.03C89.2613 27.03 89.1863 27.035 89.1063 27.045C89.0363 27.055 88.9663 27.06 88.8963 27.06C88.7463 27.09 88.5963 27.115 88.4463 27.135C88.2963 27.155 88.1563 27.17 88.0263 27.18ZM93.8613 25.05C93.8613 24.97 93.8663 24.9 93.8763 24.84C93.8963 24.77 93.9263 24.705 93.9663 24.645C93.9963 24.605 94.0313 24.575 94.0713 24.555C94.1213 24.525 94.1863 24.51 94.2663 24.51C94.3263 24.51 94.3813 24.525 94.4313 24.555C94.4913 24.575 94.5463 24.605 94.5963 24.645C94.6263 24.705 94.6513 24.77 94.6713 24.84C94.7013 24.9 94.7163 24.97 94.7163 25.05V31.41C94.7163 31.5 94.7013 31.58 94.6713 31.65C94.6513 31.72 94.6263 31.77 94.5963 31.8C94.5463 31.85 94.4913 31.885 94.4313 31.905C94.3813 31.915 94.3263 31.92 94.2663 31.92C94.1863 31.92 94.1213 31.915 94.0713 31.905C94.0313 31.885 93.9963 31.85 93.9663 31.8C93.9263 31.77 93.8963 31.72 93.8763 31.65C93.8663 31.58 93.8613 31.5 93.8613 31.41V25.05Z" fill="black"/>
</svg>
