<svg width="24" height="24" viewBox="0 0 24 24" fill="none" xmlns="http://www.w3.org/2000/svg">
<rect x="-0.9" y="0.9" width="20.113" height="22.2" rx="2.1" transform="matrix(-1 0 0 1 22.2 0)" stroke="#646464" stroke-width="1.8"/>
<rect x="0.688697" y="12.9182" width="1.37739" height="3.84" rx="0.688697" transform="rotate(-90 0.688697 12.9182)" stroke="#646464" stroke-width="1.37739"/>
<rect x="0.688697" y="7.28347" width="1.37739" height="3.84" rx="0.688697" transform="rotate(-90 0.688697 7.28347)" stroke="#646464" stroke-width="1.37739"/>
<rect x="0.688697" y="18.553" width="1.37739" height="3.84" rx="0.688697" transform="rotate(-90 0.688697 18.553)" stroke="#646464" stroke-width="1.37739"/>
<path fill-rule="evenodd" clip-rule="evenodd" d="M7.99186 5.89646C7.55156 6.33132 7.3042 6.92113 7.3042 7.53613H9.65203L11.9999 7.53613V7.53613H7.3042V8.05788C7.3042 10.6512 9.40652 12.7535 11.9999 12.7535V12.7535C14.5932 12.7535 16.6955 10.6512 16.6955 8.05786V7.53613C16.6955 6.92113 16.4481 6.33132 16.0078 5.89646C15.5675 5.46159 14.9704 5.21729 14.3477 5.21729C13.725 5.21729 13.1278 5.46159 12.6875 5.89646C12.2472 6.33132 11.9999 6.92113 11.9999 7.53613C11.9999 6.92113 11.7525 6.33132 11.3122 5.89646C10.8719 5.46159 10.2747 5.21729 9.65202 5.21729C9.02934 5.21729 8.43216 5.46159 7.99186 5.89646Z" fill="#646464"/>
<path d="M19.8262 24L19.8262 0" stroke="#646464" stroke-width="1.8"/>
</svg>
