<svg width="61" height="53" viewBox="0 0 61 53" fill="none" xmlns="http://www.w3.org/2000/svg">
<path d="M20.3312 27.825C21.1734 27.825 21.8562 27.2318 21.8562 26.5C21.8562 25.7683 21.1734 25.175 20.3312 25.175C19.4889 25.175 18.8062 25.7683 18.8062 26.5C18.8062 27.2318 19.4889 27.825 20.3312 27.825Z" fill="black"/>
<path d="M30.5001 27.825C31.3423 27.825 32.0251 27.2318 32.0251 26.5C32.0251 25.7683 31.3423 25.175 30.5001 25.175C29.6579 25.175 28.9751 25.7683 28.9751 26.5C28.9751 27.2318 29.6579 27.825 30.5001 27.825Z" fill="black"/>
<path d="M40.6686 27.825C41.5108 27.825 42.1936 27.2318 42.1936 26.5C42.1936 25.7683 41.5108 25.175 40.6686 25.175C39.8263 25.175 39.1436 25.7683 39.1436 26.5C39.1436 27.2318 39.8263 27.825 40.6686 27.825Z" fill="black"/>
</svg>
