<svg width="24" height="24" viewBox="0 0 24 24" fill="none" xmlns="http://www.w3.org/2000/svg">
<g clip-path="url(#clip0_42_1748)">
<rect x="6.68662" y="0.9" width="16.4135" height="2.88292" rx="1.44146" stroke="#646464" stroke-width="1.8"/>
<rect x="6.68662" y="10.3634" width="16.4135" height="2.88292" rx="1.44146" stroke="#646464" stroke-width="1.8"/>
<path d="M3.65337 21.6586C3.65337 22.4787 3.01337 23.1001 2.27668 23.1001C1.54 23.1001 0.9 22.4787 0.9 21.6586C0.9 20.8385 1.54 20.2171 2.27668 20.2171C3.01337 20.2171 3.65337 20.8385 3.65337 21.6586Z" stroke="#646464" stroke-width="1.8"/>
<rect x="6.68662" y="20.2171" width="16.4135" height="2.88292" rx="1.44146" stroke="#646464" stroke-width="1.8"/>
<path d="M3.65337 11.8048C3.65337 12.6249 3.01337 13.2463 2.27668 13.2463C1.54 13.2463 0.9 12.6249 0.9 11.8048C0.9 10.9848 1.54 10.3634 2.27668 10.3634C3.01337 10.3634 3.65337 10.9848 3.65337 11.8048Z" stroke="#646464" stroke-width="1.8"/>
<path d="M3.65337 2.34146C3.65337 3.16153 3.01337 3.78292 2.27668 3.78292C1.54 3.78292 0.9 3.16153 0.9 2.34146C0.9 1.5214 1.54 0.9 2.27668 0.9C3.01337 0.9 3.65337 1.5214 3.65337 2.34146Z" stroke="#646464" stroke-width="1.8"/>
</g>
<defs>
<clipPath id="clip0_42_1748">
<rect width="24" height="24" fill="white"/>
</clipPath>
</defs>
</svg>
